HIERARCHY
ROOT __0
{
	OFFSET 0.0 0.0 0.0
	CHANNELS 0
	JOINT Root
	{
		OFFSET 0.000000 0.000000 0.000000
		CHANNELS 6 Xposition Yposition Zposition Xrotation Yrotation Zrotation
		JOINT LegFront0.R
		{
			OFFSET -0.418178 -0.418153 0.176516
			CHANNELS 6 Xposition Yposition Zposition Xrotation Yrotation Zrotation
			JOINT LegFront1.R
			{
				OFFSET -0.323942 0.000000 0.000000
				CHANNELS 3 Xrotation Yrotation Zrotation
				JOINT LegFront2.R
				{
					OFFSET -0.647048 0.000000 -0.000230
					CHANNELS 3 Xrotation Yrotation Zrotation
					End Site
					{
						OFFSET -0.000003 0.000000 -0.916380
					}
				}
			}
		}
		JOINT LegFront0.L
		{
			OFFSET 0.418178 -0.418153 0.176516
			CHANNELS 6 Xposition Yposition Zposition Xrotation Yrotation Zrotation
			JOINT LegFront1.L
			{
				OFFSET 0.323942 0.000000 0.000000
				CHANNELS 3 Xrotation Yrotation Zrotation
				JOINT LegFront2.L
				{
					OFFSET 0.647048 0.000000 -0.000230
					CHANNELS 3 Xrotation Yrotation Zrotation
					End Site
					{
						OFFSET 0.000003 0.000000 -0.916380
					}
				}
			}
		}
		JOINT LegBack0.R
		{
			OFFSET -0.418178 0.418206 0.176516
			CHANNELS 6 Xposition Yposition Zposition Xrotation Yrotation Zrotation
			JOINT LegBack1.R
			{
				OFFSET -0.323942 0.000000 0.000000
				CHANNELS 3 Xrotation Yrotation Zrotation
				JOINT LegBack2.R
				{
					OFFSET -0.647048 0.000000 -0.000230
					CHANNELS 3 Xrotation Yrotation Zrotation
					End Site
					{
						OFFSET -0.000003 0.000000 -0.916380
					}
				}
			}
		}
		JOINT LegBack0.L
		{
			OFFSET 0.418178 0.418206 0.176516
			CHANNELS 6 Xposition Yposition Zposition Xrotation Yrotation Zrotation
			JOINT LegBack1.L
			{
				OFFSET 0.323942 0.000000 0.000000
				CHANNELS 3 Xrotation Yrotation Zrotation
				JOINT LegBack2.L
				{
					OFFSET 0.647048 0.000000 -0.000230
					CHANNELS 3 Xrotation Yrotation Zrotation
					End Site
					{
						OFFSET 0.000003 0.000000 -0.916380
					}
				}
			}
		}
	}
	JOINT LegFrontIK.L
	{
		OFFSET 1.389170 -0.418153 -0.740094
		CHANNELS 6 Xposition Yposition Zposition Xrotation Yrotation Zrotation
		End Site
		{
			OFFSET 0.000000 0.000000 -0.259647
		}
	}
	JOINT LegFrontIK.R
	{
		OFFSET -1.389170 -0.418153 -0.740094
		CHANNELS 6 Xposition Yposition Zposition Xrotation Yrotation Zrotation
		End Site
		{
			OFFSET 0.000000 0.000000 -0.259647
		}
	}
	JOINT LegBackIK.L
	{
		OFFSET 1.389170 0.418206 -0.740094
		CHANNELS 6 Xposition Yposition Zposition Xrotation Yrotation Zrotation
		End Site
		{
			OFFSET 0.000000 0.000000 -0.259647
		}
	}
	JOINT LegBackIK.R
	{
		OFFSET -1.389170 0.418206 -0.740094
		CHANNELS 6 Xposition Yposition Zposition Xrotation Yrotation Zrotation
		End Site
		{
			OFFSET 0.000000 0.000000 -0.259647
		}
	}
}
MOTION
Frames: 10
Frame Time: 0.100000
0.000000 0.000000 0.377785 -0.000000 0.000000 -0.000000 -0.418178 -0.418153 0.176516 0.000023 -0.000012 31.991950 0.004813 -36.000001 0.014818 -0.000139 40.790002 0.000059 0.418178 -0.418153 0.176516 0.000023 0.000012 -31.991954 0.004813 36.000001 -0.014816 -0.000141 -40.781369 -0.000059 -0.418178 0.418206 0.176516 -0.000013 0.000022 -32.018667 0.004811 -36.000001 0.014818 -0.000145 40.789968 0.000049 0.418178 0.418206 0.176516 -0.000013 -0.000022 32.018667 0.004811 36.000001 -0.014818 -0.000145 -40.789968 -0.000049 1.201612 -0.907798 -0.740094 -0.000000 0.000000 -0.000000 -1.201612 -0.907798 -0.740094 -0.000000 0.000000 -0.000000 1.201612 0.907851 -0.740094 -0.000000 0.000000 -0.000000 -1.201612 0.907851 -0.740094 -0.000000 0.000000 -0.000000 
0.000000 0.000000 0.377785 -0.000000 0.000000 -0.000000 -0.418178 -0.418153 0.176516 0.000023 -0.000012 31.991950 0.004813 -36.000001 0.014818 -0.000139 40.790002 0.000059 0.418178 -0.418153 0.176516 0.000023 0.000012 -31.991954 0.004813 36.000001 -0.014816 -0.000141 -40.781369 -0.000059 -0.418178 0.418206 0.176516 -0.000013 0.000022 -32.018667 0.004811 -36.000001 0.014818 -0.000145 40.789968 0.000049 0.418178 0.418206 0.176516 -0.000013 -0.000022 32.018667 0.004811 36.000001 -0.014818 -0.000145 -40.789968 -0.000049 1.201612 -0.907798 -0.740094 -0.000000 0.000000 -0.000000 -1.201612 -0.907798 -0.740094 -0.000000 0.000000 -0.000000 1.201612 0.907851 -0.740094 -0.000000 0.000000 -0.000000 -1.201612 0.907851 -0.740094 -0.000000 0.000000 -0.000000 
0.000000 0.000000 0.377785 -0.000000 0.000000 -0.000000 -0.418178 -0.418153 0.176516 0.000023 -0.000012 31.991950 0.004813 -36.000001 0.014818 -0.000139 40.790002 0.000059 0.418178 -0.418153 0.176516 0.000023 0.000012 -31.991954 0.004813 36.000001 -0.014816 -0.000141 -40.781369 -0.000059 -0.418178 0.418206 0.176516 -0.000013 0.000022 -32.018667 0.004811 -36.000001 0.014818 -0.000145 40.789968 0.000049 0.418178 0.418206 0.176516 -0.000013 -0.000022 32.018667 0.004811 36.000001 -0.014818 -0.000145 -40.789968 -0.000049 1.201612 -0.907798 -0.740094 -0.000000 0.000000 -0.000000 -1.201612 -0.907798 -0.740094 -0.000000 0.000000 -0.000000 1.201612 0.907851 -0.740094 -0.000000 0.000000 -0.000000 -1.201612 0.907851 -0.740094 -0.000000 0.000000 -0.000000 
0.000000 0.000000 0.377785 -0.000000 0.000000 -0.000000 -0.418178 -0.418153 0.176516 0.000023 -0.000012 31.991950 0.004813 -36.000001 0.014818 -0.000139 40.790002 0.000059 0.418178 -0.418153 0.176516 0.000023 0.000012 -31.991954 0.004813 36.000001 -0.014816 -0.000141 -40.781369 -0.000059 -0.418178 0.418206 0.176516 -0.000013 0.000022 -32.018667 0.004811 -36.000001 0.014818 -0.000145 40.789968 0.000049 0.418178 0.418206 0.176516 -0.000013 -0.000022 32.018667 0.004811 36.000001 -0.014818 -0.000145 -40.789968 -0.000049 1.201612 -0.907798 -0.740094 -0.000000 0.000000 -0.000000 -1.201612 -0.907798 -0.740094 -0.000000 0.000000 -0.000000 1.201612 0.907851 -0.740094 -0.000000 0.000000 -0.000000 -1.201612 0.907851 -0.740094 -0.000000 0.000000 -0.000000 
0.000000 0.000000 0.377785 -0.000000 0.000000 -0.000000 -0.418178 -0.418153 0.176516 0.000023 -0.000012 31.991950 0.004813 -36.000001 0.014818 -0.000139 40.790002 0.000059 0.418178 -0.418153 0.176516 0.000023 0.000012 -31.991954 0.004813 36.000001 -0.014816 -0.000141 -40.781369 -0.000059 -0.418178 0.418206 0.176516 -0.000013 0.000022 -32.018667 0.004811 -36.000001 0.014818 -0.000145 40.789968 0.000049 0.418178 0.418206 0.176516 -0.000013 -0.000022 32.018667 0.004811 36.000001 -0.014818 -0.000145 -40.789968 -0.000049 1.201612 -0.907798 -0.740094 -0.000000 0.000000 -0.000000 -1.201612 -0.907798 -0.740094 -0.000000 0.000000 -0.000000 1.201612 0.907851 -0.740094 -0.000000 0.000000 -0.000000 -1.201612 0.907851 -0.740094 -0.000000 0.000000 -0.000000 
0.000000 0.000000 0.377785 -0.000000 0.000000 -0.000000 -0.418178 -0.418153 0.176516 0.000023 -0.000012 31.991950 0.004813 -36.000001 0.014818 -0.000139 40.790002 0.000059 0.418178 -0.418153 0.176516 0.000023 0.000012 -31.991954 0.004813 36.000001 -0.014816 -0.000141 -40.781369 -0.000059 -0.418178 0.418206 0.176516 -0.000013 0.000022 -32.018667 0.004811 -36.000001 0.014818 -0.000145 40.789968 0.000049 0.418178 0.418206 0.176516 -0.000013 -0.000022 32.018667 0.004811 36.000001 -0.014818 -0.000145 -40.789968 -0.000049 1.201612 -0.907798 -0.740094 -0.000000 0.000000 -0.000000 -1.201612 -0.907798 -0.740094 -0.000000 0.000000 -0.000000 1.201612 0.907851 -0.740094 -0.000000 0.000000 -0.000000 -1.201612 0.907851 -0.740094 -0.000000 0.000000 -0.000000 
0.000000 0.000000 0.377785 -0.000000 0.000000 -0.000000 -0.418178 -0.418153 0.176516 0.000023 -0.000012 31.991950 0.004813 -36.000001 0.014818 -0.000139 40.790002 0.000059 0.418178 -0.418153 0.176516 0.000023 0.000012 -31.991954 0.004813 36.000001 -0.014816 -0.000141 -40.781369 -0.000059 -0.418178 0.418206 0.176516 -0.000013 0.000022 -32.018667 0.004811 -36.000001 0.014818 -0.000145 40.789968 0.000049 0.418178 0.418206 0.176516 -0.000013 -0.000022 32.018667 0.004811 36.000001 -0.014818 -0.000145 -40.789968 -0.000049 1.201612 -0.907798 -0.740094 -0.000000 0.000000 -0.000000 -1.201612 -0.907798 -0.740094 -0.000000 0.000000 -0.000000 1.201612 0.907851 -0.740094 -0.000000 0.000000 -0.000000 -1.201612 0.907851 -0.740094 -0.000000 0.000000 -0.000000 
0.000000 0.000000 0.377785 -0.000000 0.000000 -0.000000 -0.418178 -0.418153 0.176516 0.000023 -0.000012 31.991950 0.004813 -36.000001 0.014818 -0.000139 40.790002 0.000059 0.418178 -0.418153 0.176516 0.000023 0.000012 -31.991954 0.004813 36.000001 -0.014816 -0.000141 -40.781369 -0.000059 -0.418178 0.418206 0.176516 -0.000013 0.000022 -32.018667 0.004811 -36.000001 0.014818 -0.000145 40.789968 0.000049 0.418178 0.418206 0.176516 -0.000013 -0.000022 32.018667 0.004811 36.000001 -0.014818 -0.000145 -40.789968 -0.000049 1.201612 -0.907798 -0.740094 -0.000000 0.000000 -0.000000 -1.201612 -0.907798 -0.740094 -0.000000 0.000000 -0.000000 1.201612 0.907851 -0.740094 -0.000000 0.000000 -0.000000 -1.201612 0.907851 -0.740094 -0.000000 0.000000 -0.000000 
0.000000 0.000000 0.377785 -0.000000 0.000000 -0.000000 -0.418178 -0.418153 0.176516 0.000023 -0.000012 31.991950 0.004813 -36.000001 0.014818 -0.000139 40.790002 0.000059 0.418178 -0.418153 0.176516 0.000023 0.000012 -31.991954 0.004813 36.000001 -0.014816 -0.000141 -40.781369 -0.000059 -0.418178 0.418206 0.176516 -0.000013 0.000022 -32.018667 0.004811 -36.000001 0.014818 -0.000145 40.789968 0.000049 0.418178 0.418206 0.176516 -0.000013 -0.000022 32.018667 0.004811 36.000001 -0.014818 -0.000145 -40.789968 -0.000049 1.201612 -0.907798 -0.740094 -0.000000 0.000000 -0.000000 -1.201612 -0.907798 -0.740094 -0.000000 0.000000 -0.000000 1.201612 0.907851 -0.740094 -0.000000 0.000000 -0.000000 -1.201612 0.907851 -0.740094 -0.000000 0.000000 -0.000000 
0.000000 0.000000 -0.228058 -0.000000 0.000000 -0.000000 -0.418178 -0.418153 0.176516 0.000023 -0.000012 32.009040 0.001401 20.634797 -0.007683 0.000056 -20.991207 0.000012 0.418178 -0.418153 0.176516 0.000023 0.000012 -32.009053 0.001402 -20.640074 0.007685 0.000056 20.998855 -0.000008 -0.418178 0.418206 0.176516 -0.000013 0.000022 -32.001550 0.001401 20.634743 -0.007681 0.000055 -20.991181 0.000011 0.418178 0.418206 0.176516 -0.000013 -0.000022 32.001550 0.001401 -20.634743 0.007681 0.000055 20.991181 -0.000011 1.201612 -0.907798 -0.740094 -0.000000 0.000000 -0.000000 -1.201612 -0.907798 -0.740094 -0.000000 0.000000 -0.000000 1.201612 0.907851 -0.740094 -0.000000 0.000000 -0.000000 -1.201612 0.907851 -0.740094 -0.000000 0.000000 -0.000000 
